<svg class="logo" width="100%" height="100%" viewBox="0 0 448 512" xmlns="http://www.w3.org/2000/svg" xmlns:svg="http://www.w3.org/2000/svg">
 <g>
  <path id="raptools" stroke-miterlimit="4" stroke-width="1.12343"
d="M 171.00,1.96
           C 171.00,1.96 184.00,1.96 184.00,1.96
             226.20,2.50 271.61,30.11 296.76,63.00
             305.03,73.81 307.07,81.89 312.28,94.00
             312.28,94.00 339.42,164.00 339.42,164.00
             339.42,164.00 381.05,278.00 381.05,278.00
             381.05,278.00 411.33,362.00 411.33,362.00
             411.33,362.00 420.05,387.00 420.05,387.00
             420.05,387.00 433.34,425.00 433.34,425.00
             440.46,445.51 450.14,468.91 436.23,489.00
             433.38,493.11 430.79,495.87 426.99,499.08
             422.46,502.90 418.50,505.33 413.00,507.55
             405.48,510.59 399.98,511.09 392.00,511.00
             372.80,510.77 361.93,506.56 349.67,491.00
             342.79,482.27 332.00,463.15 324.00,457.65
             319.75,454.72 311.17,454.06 306.00,454.00
             306.00,454.00 265.00,454.00 265.00,454.00
             265.00,454.00 250.00,453.00 250.00,453.00
             250.00,453.00 46.00,453.00 46.00,453.00
             34.67,452.98 18.47,448.20 14.65,436.00
             13.89,433.59 14.00,430.53 14.00,428.00
             14.00,428.00 14.00,175.00 14.00,175.00
             14.00,175.00 14.00,60.00 14.00,60.00
             13.79,42.65 7.08,20.68 24.00,8.80
             26.91,6.76 29.64,5.73 33.00,4.72
             38.51,3.06 40.36,3.01 46.00,3.00
             46.00,3.00 102.00,3.00 102.00,3.00
             102.00,3.00 119.00,2.00 119.00,2.00
             119.00,2.00 148.00,1.42 148.00,1.42
             156.30,0.41 162.88,1.36 171.00,1.96 Z
           M 114.00,13.00
           C 114.00,13.00 66.00,13.00 66.00,13.00
             55.33,13.00 39.81,11.19 31.02,17.64
             22.55,23.84 22.02,35.36 22.00,45.00
             22.00,45.00 22.00,347.00 22.00,347.00
             22.00,347.00 22.00,411.00 22.00,411.00
             22.10,419.27 22.90,430.84 29.10,436.81
             36.40,443.83 47.59,443.44 57.00,444.09
             57.00,444.09 69.00,445.00 69.00,445.00
             69.00,445.00 260.00,445.00 260.00,445.00
             260.00,445.00 275.00,446.00 275.00,446.00
             275.00,446.00 323.00,446.00 323.00,446.00
             325.40,446.00 328.76,445.87 330.99,446.74
             336.50,448.90 342.20,460.79 345.42,466.00
             353.50,479.03 363.40,494.86 379.00,499.25
             404.57,506.46 433.64,490.52 432.99,462.00
             432.78,453.18 423.02,428.07 419.67,418.00
             419.67,418.00 385.69,322.00 385.69,322.00
             385.69,322.00 326.05,158.00 326.05,158.00
             315.29,128.57 303.24,87.94 283.54,64.00
             266.10,42.82 231.95,21.10 205.00,14.89
             199.20,13.55 194.95,13.01 189.00,13.00
             189.00,13.00 173.00,12.14 173.00,12.14
             173.00,12.14 143.00,12.14 143.00,12.14
             134.39,13.52 122.95,13.00 114.00,13.00 Z
           M 134.00,40.00
           C 134.00,40.00 180.00,40.00 180.00,40.00
             189.62,40.02 197.93,43.01 207.00,46.00
             212.87,47.94 221.66,50.70 227.00,53.37
             243.79,61.76 259.94,78.27 269.95,94.00
             277.28,105.52 284.84,124.22 285.00,138.00
             285.00,138.00 285.00,162.00 285.00,162.00
             284.97,180.82 276.31,202.96 265.25,218.00
             265.25,218.00 235.87,250.00 235.87,250.00
             229.71,257.20 224.99,262.99 226.18,273.00
             227.54,284.38 239.41,303.05 245.58,313.00
             245.58,313.00 287.19,380.00 287.19,380.00
             294.19,391.29 305.33,404.40 306.00,418.00
             306.00,418.00 250.00,418.00 250.00,418.00
             250.00,418.00 233.00,419.00 233.00,419.00
             233.00,419.00 109.00,419.00 109.00,419.00
             109.00,419.00 94.00,420.00 94.00,420.00
             94.00,420.00 49.00,420.00 49.00,420.00
             49.00,420.00 49.00,215.00 49.00,215.00
             49.00,215.00 49.00,112.00 49.00,112.00
             49.00,112.00 50.00,97.00 50.00,97.00
             50.00,97.00 50.00,40.00 50.00,40.00
             50.00,40.00 134.00,40.00 134.00,40.00 Z
           M 314.30,210.91
           C 316.19,212.28 319.13,221.49 320.00,224.00
             320.00,224.00 335.81,267.00 335.81,267.00
             335.81,267.00 395.19,425.00 395.19,425.00
             399.11,435.13 404.56,451.12 403.68,462.00
             403.05,469.65 400.19,473.58 392.00,472.89
             381.75,472.03 377.40,462.71 372.58,455.00
             372.58,455.00 340.66,405.00 340.66,405.00
             340.66,405.00 281.32,311.00 281.32,311.00
             281.32,311.00 267.80,289.00 267.80,289.00
             264.36,283.25 261.28,279.06 262.19,272.00
             262.96,265.96 268.09,260.35 272.08,256.00
             272.08,256.00 290.74,235.00 290.74,235.00
             296.81,227.54 303.05,214.83 310.96,210.91
             311.37,210.74 312.80,210.05 314.30,210.91 Z" />
 </g>
</svg>
