<svg class="logo" width="100%" height="100%" viewBox="0 0 448 512" xmlns="http://www.w3.org/2000/svg" xmlns:svg="http://www.w3.org/2000/svg">
 <g>
  <path id="raptools" stroke-miterlimit="4" stroke-width="1.12343"
        d="M 143.00,2.42
           C 143.00,2.42 110.00,3.00 110.00,3.00
             110.00,3.00 50.00,3.00 50.00,3.00
             37.65,3.02 22.91,6.12 16.41,18.00
             10.52,28.80 13.98,41.48 14.00,53.00
             14.00,53.00 14.00,102.00 14.00,102.00
             14.00,102.00 14.00,426.00 14.00,426.00
             14.00,429.00 13.88,432.12 14.85,435.00
             18.83,446.75 34.51,452.86 46.00,453.00
             46.00,453.00 259.00,453.00 259.00,453.00
             259.00,453.00 276.00,454.00 276.00,454.00
             276.00,454.00 312.00,454.00 312.00,454.00
             316.06,454.02 320.34,454.14 324.00,456.14
             329.16,458.95 332.94,465.16 336.05,470.00
             336.05,470.00 350.00,490.00 350.00,490.00
             357.21,499.04 365.32,506.84 377.00,509.33
             377.00,509.33 393.00,510.49 393.00,510.49
             416.32,511.97 442.71,491.06 443.00,467.00
             443.18,451.90 438.69,443.06 434.00,429.00
             434.00,429.00 412.33,367.00 412.33,367.00
             412.33,367.00 397.69,326.00 397.69,326.00
             397.69,326.00 352.05,200.00 352.05,200.00
             352.05,200.00 319.40,113.00 319.40,113.00
             319.40,113.00 302.63,73.00 302.63,73.00
             286.36,46.89 257.15,24.62 229.00,12.58
             217.00,7.45 203.15,3.16 190.00,3.00
             174.84,2.83 157.98,0.60 143.00,2.42 Z
           M 45.00,12.14
           C 45.00,12.14 132.00,12.14 132.00,12.14
             147.70,12.00 187.85,11.14 201.00,13.46
             210.64,15.17 224.22,20.42 233.00,24.81
             251.44,34.03 275.00,51.51 287.24,68.00
             304.58,91.35 315.12,127.46 325.42,155.00
             325.42,155.00 378.05,299.00 378.05,299.00
             378.05,299.00 414.66,402.00 414.66,402.00
             414.66,402.00 424.69,432.00 424.69,432.00
             431.76,451.85 440.13,465.56 426.21,485.00
             424.04,488.04 420.96,491.19 418.00,493.47
             406.48,502.35 383.52,504.25 371.00,496.53
             362.52,491.31 354.76,481.28 349.34,473.00
             349.34,473.00 338.85,456.00 338.85,456.00
             337.11,452.99 335.05,448.73 331.91,447.02
             329.67,445.80 326.50,446.00 324.00,446.00
             324.00,446.00 267.00,446.00 267.00,446.00
             267.00,446.00 254.00,445.00 254.00,445.00
             254.00,445.00 61.00,445.00 61.00,445.00
             61.00,445.00 50.00,444.17 50.00,444.17
             41.24,443.32 33.75,443.10 27.22,435.91
             22.94,431.19 22.08,423.17 22.00,417.00
             22.00,417.00 22.00,365.00 22.00,365.00
             22.00,365.00 22.00,112.00 22.00,112.00
             22.00,112.00 22.00,52.00 22.00,52.00
             22.00,44.40 21.09,30.53 24.45,24.00
             28.80,15.54 36.48,13.59 45.00,12.14 Z
           M 50.00,40.00
           C 50.00,40.00 50.00,106.00 50.00,106.00
             50.00,106.00 49.00,121.00 49.00,121.00
             49.00,121.00 49.00,221.00 49.00,221.00
             49.00,221.00 49.00,420.00 49.00,420.00
             49.00,420.00 87.00,420.00 87.00,420.00
             87.00,420.00 102.00,419.00 102.00,419.00
             102.00,419.00 224.00,419.00 224.00,419.00
             224.00,419.00 241.00,418.00 241.00,418.00
             241.00,418.00 306.00,418.00 306.00,418.00
             304.96,406.57 292.95,390.95 286.68,381.00
             286.68,381.00 240.72,307.00 240.72,307.00
             234.81,296.68 224.24,280.18 225.10,268.00
             225.67,259.72 232.45,251.70 238.01,246.00
             245.02,238.81 258.36,225.55 264.10,218.00
             276.61,201.56 284.97,177.72 285.00,157.00
             285.00,157.00 285.00,142.00 285.00,142.00
             284.84,129.02 278.53,110.17 271.99,99.00
             261.48,81.04 243.99,62.34 225.00,53.32
             218.28,50.12 210.16,47.67 203.00,45.58
             192.73,42.57 188.18,40.02 177.00,40.00
             177.00,40.00 131.00,40.00 131.00,40.00
             131.00,40.00 50.00,40.00 50.00,40.00 Z
           M 314.00,210.00
           C 306.19,211.68 302.82,219.77 298.67,226.00
             290.46,238.31 281.31,246.98 271.72,258.00
             267.70,262.62 261.72,268.32 262.23,275.00
             262.59,279.82 268.00,287.67 270.60,292.00
             270.60,292.00 292.32,327.00 292.32,327.00
             292.32,327.00 355.66,427.00 355.66,427.00
             355.66,427.00 373.66,455.00 373.66,455.00
             376.26,458.99 379.91,465.55 383.30,468.73
             387.74,472.61 398.19,475.09 401.83,468.73
             403.32,466.29 403.03,461.01 403.00,458.00
             402.86,446.21 396.80,430.99 392.40,420.00
             392.40,420.00 376.05,377.00 376.05,377.00
             376.05,377.00 351.05,310.00 351.05,310.00
             351.05,310.00 327.58,247.00 327.58,247.00
             327.58,247.00 314.00,210.00 314.00,210.00 Z
           M 204.00,361.00
           C 204.00,361.00 204.00,399.00 204.00,399.00
             204.00,399.00 195.00,399.00 195.00,399.00
             195.00,399.00 195.00,361.00 195.00,361.00
             195.00,361.00 204.00,361.00 204.00,361.00 Z
           M 114.00,364.00
           C 114.00,364.00 114.00,372.00 114.00,372.00
             114.00,372.00 122.00,372.00 122.00,372.00
             122.00,372.00 122.00,378.00 122.00,378.00
             122.00,378.00 114.00,378.00 114.00,378.00
             114.00,388.96 112.48,392.67 122.00,393.00
             122.00,393.00 122.00,400.00 122.00,400.00
             118.47,400.00 111.03,400.49 108.13,398.83
             102.47,395.57 104.00,383.80 104.00,378.00
             104.00,378.00 101.00,378.00 101.00,378.00
             101.00,378.00 101.00,372.00 101.00,372.00
             101.00,372.00 104.00,372.00 104.00,372.00
             104.00,372.00 104.00,364.00 104.00,364.00
             104.00,364.00 114.00,364.00 114.00,364.00 Z
           M 134.00,371.43
           C 139.47,370.60 147.40,370.19 151.61,374.39
             158.14,380.91 157.18,397.03 146.00,399.61
             140.96,400.77 133.04,400.45 129.13,396.77
             122.97,390.98 122.33,376.04 134.00,371.43 Z
           M 168.00,371.43
           C 173.47,370.60 181.40,370.19 185.61,374.39
             192.14,380.91 191.18,397.03 180.00,399.61
             174.96,400.77 167.04,400.45 163.13,396.77
             156.97,390.98 156.33,376.04 168.00,371.43 Z
           M 235.00,372.00
           C 235.00,372.00 235.00,380.00 235.00,380.00
             235.00,380.00 220.00,378.00 220.00,378.00
             226.18,384.29 234.63,380.20 235.85,389.00
             237.76,402.80 218.25,400.48 210.00,399.00
             210.00,399.00 210.00,391.00 210.00,391.00
             210.00,391.00 226.00,393.00 226.00,393.00
             220.60,387.61 214.73,390.41 211.31,384.79
             208.33,379.87 210.98,374.11 216.02,372.00
             220.70,370.05 230.01,371.11 235.00,372.00 Z
           M 137.43,379.03
           C 132.08,384.87 136.09,396.12 142.70,391.97
             147.25,389.12 146.94,375.65 137.43,379.03 Z
           M 171.43,379.03
           C 166.08,384.87 170.09,396.12 176.70,391.97
             181.25,389.12 180.94,375.65 171.43,379.03 Z" />
 </g>
</svg>
