<svg class="logo" width="100%" height="100%" viewBox="0 0 448 512" xmlns="http://www.w3.org/2000/svg" xmlns:svg="http://www.w3.org/2000/svg">
 <g>
  <path id="raptools" stroke-miterlimit="4" stroke-width="1.12343"
d="M 154.00,1.21
           C 170.36,1.00 186.84,0.50 203.00,3.42
             234.28,9.08 267.63,28.52 288.83,52.00
             305.06,69.97 307.72,80.40 316.20,102.00
             316.20,102.00 334.42,149.00 334.42,149.00
             334.42,149.00 403.95,339.00 403.95,339.00
             403.95,339.00 432.00,419.00 432.00,419.00
             436.87,433.30 444.55,451.72 443.96,467.00
             442.98,492.15 421.73,510.96 397.00,511.00
             397.00,511.00 385.00,511.00 385.00,511.00
             362.05,510.73 352.65,497.08 340.72,480.00
             335.71,472.83 330.29,463.69 323.00,458.65
             317.28,454.69 312.35,455.42 306.00,454.58
             306.00,454.58 258.00,454.00 258.00,454.00
             258.00,454.00 241.00,453.00 241.00,453.00
             241.00,453.00 70.00,453.00 70.00,453.00
             58.19,453.00 40.84,454.45 30.00,450.79
             23.85,448.72 17.04,444.43 14.85,438.00
             13.88,435.13 14.00,431.99 14.00,429.00
             14.00,429.00 14.00,180.00 14.00,180.00
             14.00,180.00 14.00,67.00 14.00,67.00
             13.74,45.32 3.57,14.37 31.00,4.70
             35.99,2.94 37.85,3.01 43.00,3.00
             43.00,3.00 93.00,3.00 93.00,3.00
             93.00,3.00 112.00,2.00 112.00,2.00
             115.69,1.98 116.35,1.94 120.00,1.21
             120.00,1.21 154.00,1.21 154.00,1.21 Z
           M 34.00,16.44
           C 23.82,21.81 23.59,31.16 22.91,41.00
             22.91,41.00 22.00,51.00 22.00,51.00
             22.00,51.00 22.00,197.00 22.00,197.00
             22.00,197.00 22.00,369.00 22.00,369.00
             22.00,369.00 22.83,414.00 22.83,414.00
             23.56,421.62 23.04,428.46 28.39,434.96
             34.67,442.60 43.18,442.31 52.00,443.17
             52.00,443.17 77.00,445.00 77.00,445.00
             77.00,445.00 268.00,445.00 268.00,445.00
             268.00,445.00 283.00,446.00 283.00,446.00
             283.00,446.00 323.00,446.00 323.00,446.00
             325.91,446.00 329.32,445.79 331.96,447.17
             337.73,450.20 346.20,466.80 350.33,473.00
             362.52,491.27 371.29,500.26 394.00,500.00
             410.47,499.80 426.65,489.35 431.07,473.00
             432.09,469.24 432.04,465.85 432.00,462.00
             431.87,451.31 424.86,434.59 421.33,424.00
             421.33,424.00 411.69,397.00 411.69,397.00
             411.69,397.00 394.42,348.00 394.42,348.00
             394.42,348.00 376.95,299.00 376.95,299.00
             376.95,299.00 323.05,151.00 323.05,151.00
             311.27,118.75 301.52,83.92 277.83,58.00
             271.68,51.27 257.88,40.77 250.00,35.69
             236.71,27.13 220.50,18.89 205.00,15.42
             191.93,12.50 178.31,13.00 165.00,13.00
             165.00,13.00 139.00,13.00 139.00,13.00
             139.00,13.00 125.00,13.97 125.00,13.97
             125.00,13.97 111.00,13.14 111.00,13.14
             111.00,13.14 48.00,13.14 48.00,13.14
             43.53,13.94 37.99,14.34 34.00,16.44 Z
           M 136.00,40.00
           C 136.00,40.00 182.00,40.00 182.00,40.00
             192.54,40.02 199.21,42.74 209.00,46.00
             215.05,48.02 224.62,50.97 230.00,53.90
             243.87,61.44 259.54,76.96 268.33,90.00
             276.38,101.95 284.83,120.40 285.00,135.00
             285.00,135.00 285.00,166.00 285.00,166.00
             284.97,182.84 277.00,202.21 267.64,216.00
             267.64,216.00 240.00,247.00 240.00,247.00
             234.21,253.09 227.44,260.14 227.04,269.00
             226.47,281.72 237.19,297.37 243.60,308.00
             243.60,308.00 287.69,379.00 287.69,379.00
             295.38,390.94 305.86,403.16 306.00,418.00
             306.00,418.00 259.00,418.00 259.00,418.00
             259.00,418.00 242.00,419.00 242.00,419.00
             242.00,419.00 116.00,419.00 116.00,419.00
             116.00,419.00 101.00,420.00 101.00,420.00
             101.00,420.00 49.00,420.00 49.00,420.00
             49.00,420.00 49.00,209.00 49.00,209.00
             49.00,209.00 49.00,103.00 49.00,103.00
             49.00,103.00 50.00,88.00 50.00,88.00
             50.00,88.00 50.00,40.00 50.00,40.00
             50.00,40.00 136.00,40.00 136.00,40.00 Z
           M 320.42,223.00
           C 320.42,223.00 336.32,266.00 336.32,266.00
             336.32,266.00 379.42,381.00 379.42,381.00
             379.42,381.00 395.31,423.00 395.31,423.00
             399.76,435.47 404.15,446.51 404.00,460.00
             403.89,469.32 402.00,473.41 392.00,472.96
             380.86,472.46 376.64,463.38 371.42,455.00
             371.42,455.00 338.32,403.00 338.32,403.00
             338.32,403.00 282.19,314.00 282.19,314.00
             282.19,314.00 268.60,292.00 268.60,292.00
             265.27,286.47 262.33,282.68 262.04,276.00
             261.89,272.58 262.13,269.16 263.56,266.00
             266.49,259.52 283.73,241.90 289.38,235.00
             295.81,227.16 300.96,215.66 310.00,210.87
             317.71,209.31 318.28,217.26 320.42,223.00 Z
           M 208.02,341.60
           C 206.96,342.95 207.03,345.37 207.00,347.00
             207.00,347.00 207.00,386.00 207.00,386.00
             207.00,391.42 206.22,399.35 209.70,403.89
             212.91,407.89 225.44,413.07 227.27,403.89
             227.49,402.62 227.79,400.60 227.27,399.27
             226.33,396.55 223.25,396.46 221.74,392.89
             220.46,389.89 221.00,372.46 221.00,368.00
             221.00,368.00 221.00,339.00 221.00,339.00
             218.18,339.06 209.77,339.37 208.02,341.60 Z
           M 60.99,349.74
           C 59.93,351.06 60.03,353.40 60.22,355.00
             60.22,355.00 60.22,392.00 60.22,392.00
             61.17,397.14 61.88,402.03 66.11,405.58
             70.74,409.48 78.24,409.34 84.00,408.91
             86.14,408.75 89.62,408.34 90.96,406.44
             92.70,403.97 90.86,398.60 90.00,396.24
             86.84,396.59 82.14,397.82 79.11,396.24
             72.55,393.58 74.00,378.08 74.00,372.00
             74.00,372.00 90.00,372.00 90.00,372.00
             90.00,372.00 90.00,361.00 90.00,361.00
             90.00,361.00 74.00,361.00 74.00,361.00
             74.00,361.00 74.00,347.00 74.00,347.00
             71.08,347.06 62.85,347.42 60.99,349.74 Z
           M 97.00,386.00
           C 97.07,391.90 98.47,397.31 102.39,401.91
             108.17,408.69 117.58,410.15 126.00,408.67
             144.79,405.37 147.11,379.39 138.44,368.02
             132.18,359.79 123.47,359.27 114.00,360.33
             100.68,363.61 96.86,373.46 97.00,386.00 Z
           M 151.00,386.00
           C 151.07,391.90 152.47,397.31 156.39,401.91
             162.17,408.69 171.58,410.15 180.00,408.67
             198.79,405.37 201.11,379.39 192.44,368.02
             186.18,359.79 177.47,359.27 168.00,360.33
             154.68,363.61 150.86,373.46 151.00,386.00 Z
           M 243.00,361.13
           C 234.08,364.42 230.51,374.79 235.14,382.98
             240.00,391.59 247.60,386.77 255.00,396.00
             245.96,398.73 242.58,396.32 234.00,395.00
             234.00,395.00 232.00,407.00 232.00,407.00
             245.40,409.69 270.40,413.43 268.90,392.00
             268.31,383.56 264.49,381.15 257.00,379.12
             255.05,378.59 248.01,377.09 248.62,374.17
             249.47,370.08 262.05,372.76 265.00,373.00
             265.00,373.00 267.00,362.00 267.00,362.00
             260.34,360.08 249.62,358.69 243.00,361.13 Z
           M 120.00,397.32
           C 114.94,397.32 112.12,392.40 111.33,388.00
             109.98,380.54 111.59,373.27 120.00,371.82
             133.84,373.84 130.59,397.32 120.00,397.32 Z
           M 174.00,397.32
           C 168.94,397.32 166.12,392.40 165.33,388.00
             163.98,380.54 165.59,373.27 174.00,371.82
             187.84,373.84 184.59,397.32 174.00,397.32 Z" />
 </g>
</svg>
